<svg width="1000" height="1000" viewBox="0 0 1000 1000" fill="none" xmlns="http://www.w3.org/2000/svg">
<g clip-path="url(#clip0_15_387)">
<rect width="1000" height="1000" rx="500" fill="#121212"/>
<path fill-rule="evenodd" clip-rule="evenodd" d="M890.231 455.041C975.793 457.755 958.529 600.308 1012.55 666.913C1068.04 735.327 1215.25 748.751 1198.71 835.372C1182.31 921.32 1046.05 888.399 964.396 919.219C899.375 943.76 843.068 1023.58 780.544 993.201C718.039 962.836 729.248 872.184 724.523 802.687C721.01 751.017 735.539 705.559 757.811 658.835C794.497 581.87 805.22 452.346 890.231 455.041Z" fill="#5B1EDC"/>
<path d="M90.75 475C91.9167 460 96.9167 447.083 105.75 436.25C114.75 425.25 126.667 416.833 141.5 411C156.333 405.167 173 402.25 191.5 402.25C209.167 402.25 224.583 404.917 237.75 410.25C251.083 415.583 261.417 423 268.75 432.5C276.083 441.833 279.75 452.75 279.75 465.25C279.75 475.083 277 484.167 271.5 492.5C266.167 500.833 257.833 509 246.5 517C235.167 524.833 220.417 532.833 202.25 541L154.5 563L153.25 548.5H284.75V594H95.5V554L176.25 509.75C188.417 503.083 197.75 497.583 204.25 493.25C210.75 488.75 215.333 484.667 218 481C220.667 477.167 222 473.083 222 468.75C222 464.25 220.75 460.333 218.25 457C215.75 453.667 212 451.083 207 449.25C202.167 447.417 196.25 446.5 189.25 446.5C180.083 446.5 172.583 447.833 166.75 450.5C161.083 453 156.75 456.417 153.75 460.75C150.917 465.083 149.167 469.833 148.5 475H90.75ZM301.652 450.75H358.902L368.652 510V594H311.402V501.25L301.652 450.75ZM419.652 446.5C433.652 446.5 445.486 449.25 455.152 454.75C464.819 460.25 472.236 468.083 477.402 478.25C482.736 488.25 485.402 500 485.402 513.5V594H427.902V521.75C427.902 512.417 425.402 505.25 420.402 500.25C415.569 495.25 408.652 492.75 399.652 492.75C393.319 492.75 387.819 494.083 383.152 496.75C378.486 499.417 374.902 503.167 372.402 508C369.902 512.833 368.652 518.667 368.652 525.5L351.402 516.5C353.569 501 357.902 488.083 364.402 477.75C371.069 467.417 379.152 459.667 388.652 454.5C398.152 449.167 408.486 446.5 419.652 446.5ZM509.574 448L538.324 454L566.824 448V594H509.574V448ZM538.324 438.5C528.658 438.5 520.824 436.083 514.824 431.25C508.824 426.417 505.824 419.917 505.824 411.75C505.824 403.417 508.824 396.833 514.824 392C520.824 387.167 528.658 384.75 538.324 384.75C548.324 384.75 556.241 387.167 562.074 392C568.074 396.833 571.074 403.417 571.074 411.75C571.074 419.917 568.074 426.417 562.074 431.25C556.241 436.083 548.324 438.5 538.324 438.5ZM581.57 492.75V468L610.07 455L635.07 412H667.57V450.75H725.57V492.75H667.57V528.5C667.57 538.167 669.404 545 673.07 549C676.904 553 684.32 555 695.32 555C702.154 555 708.237 554.5 713.57 553.5C718.904 552.333 723.737 550.917 728.07 549.25V591.5C722.737 593.167 715.987 594.667 707.82 596C699.654 597.5 691.07 598.25 682.07 598.25C665.737 598.25 652.237 595.75 641.57 590.75C631.07 585.75 623.154 578.583 617.82 569.25C612.654 559.917 610.07 548.917 610.07 536.25V492.75H581.57ZM829.211 598.25C811.544 598.25 795.794 595.083 781.961 588.75C768.128 582.417 757.211 573.5 749.211 562C741.211 550.5 737.211 537.083 737.211 521.75C737.211 506.75 741.044 493.583 748.711 482.25C756.544 470.917 767.128 462.167 780.461 456C793.961 449.667 809.044 446.5 825.711 446.5C843.211 446.5 858.128 450.167 870.461 457.5C882.794 464.667 892.211 474.917 898.711 488.25C905.378 501.583 908.711 517.25 908.711 535.25H783.961V507H875.711L858.961 516.5C858.128 509.333 856.294 503.417 853.461 498.75C850.794 493.917 847.128 490.25 842.461 487.75C837.961 485.25 832.544 484 826.211 484C819.211 484 813.211 485.5 808.211 488.5C803.378 491.5 799.628 495.667 796.961 501C794.461 506.333 793.211 512.417 793.211 519.25C793.211 527.75 795.044 534.917 798.711 540.75C802.544 546.583 808.294 551.083 815.961 554.25C823.628 557.25 833.128 558.75 844.461 558.75C855.294 558.75 865.878 557.333 876.211 554.5C886.711 551.667 896.294 547.5 904.961 542V575.5C894.794 582.833 883.044 588.5 869.711 592.5C856.378 596.333 842.878 598.25 829.211 598.25Z" fill="white"/>
<path fill-rule="evenodd" clip-rule="evenodd" d="M946.43 -175.21C989.597 -174.484 1031.2 -209.489 1071.41 -193.772C1114.64 -176.872 1144.92 -135.08 1160.68 -91.4533C1176.76 -46.9759 1183.44 6.80661 1158.38 46.9193C1134.28 85.4893 1078.08 82.3716 1038.29 104.442C1005.5 122.636 983.101 156.616 946.43 164.5C904.141 173.59 855.771 176.321 820.533 151.253C785.211 126.126 778.398 78.1852 766.525 36.5157C755.119 -3.51663 744.355 -43.9391 753.337 -84.5831C762.977 -128.203 777.894 -179.038 818.358 -198.03C858.593 -216.913 901.985 -175.958 946.43 -175.21Z" fill="#5B1EDC"/>
<path fill-rule="evenodd" clip-rule="evenodd" d="M3.7863 699.065C85.1204 701.846 117.008 796.384 157.249 863.003C186.975 912.213 207.189 964.016 197.589 1019.9C187.033 1081.36 164.07 1148.23 103.846 1173.91C44.5876 1199.17 -20.5752 1166.84 -77.4874 1137.17C-129.163 1110.24 -174.877 1073.61 -191.157 1020.15C-208.61 962.829 -195.75 903.772 -164.32 852.006C-123.633 784.991 -78.1341 696.263 3.7863 699.065Z" fill="#5B1EDC"/>
</g>
<defs>
<clipPath id="clip0_15_387">
<rect width="1000" height="1000" rx="500" fill="white"/>
</clipPath>
</defs>
</svg>
